<!-- icon666.com - MILLIONS vector ICONS FREE --><svg version="1.1" id="Capa_1" xmlns="http://www.w3.org/2000/svg" xmlns:xlink="http://www.w3.org/1999/xlink" x="0px" y="0px" viewBox="0 0 486.6 486.6" style="enable-background:new 0 0 486.6 486.6;" xml:space="preserve"><g><path style="fill: rgb(41, 152, 169);" d="M448.704,137.2L448.704,137.2c-10.9,8.5-24.5,13.5-39.3,13.5s-28.5-5-39.4-13.4v-0.1 c0-18.6,15-33.6,33.6-33.6h11.5C433.804,103.6,448.704,118.5,448.704,137.2z" fill="#ED664C"></path><path style="fill: rgb(41, 152, 169);" d="M446.104,462.4L446.104,462.4c-11.5,9-25.9,14.2-41.5,14.2c-15.7,0-30.1-5.3-41.6-14.2l0,0 c0-19.7,15.8-35.5,35.5-35.5h12.1C430.304,426.9,446.104,442.7,446.104,462.4z" fill="#ED664C"></path><path style="fill: rgb(41, 152, 169);" d="M425.504,62.8c4.1,4.1,6.6,9.7,6.6,16s-2.5,11.9-6.6,16s-9.7,6.6-16,6.6 c-12.5,0-22.6-10.1-22.6-22.6c0-6.3,2.5-11.9,6.6-16s9.7-6.6,16-6.6C415.704,56.2,421.404,58.7,425.504,62.8z" fill="#ED664C"></path><path style="fill: rgb(41, 152, 169);" d="M421.504,383.9c4.3,4.3,7,10.3,7,16.9s-2.7,12.6-7,16.9s-10.3,7-16.9,7c-13.2,0-23.9-10.6-23.9-23.9 c0-6.6,2.7-12.6,7-16.9s10.3-7,16.9-7S417.204,379.5,421.504,383.9z" fill="#ED664C"></path></g><g><path style="fill: rgb(251, 244, 234);" d="M409.504,101.4c6.3,0,11.9-2.5,16-6.6s6.6-9.7,6.6-16s-2.5-11.9-6.6-16s-9.7-6.6-16-6.6 s-11.9,2.5-16,6.6s-6.6,9.7-6.6,16C386.904,91.3,396.904,101.4,409.504,101.4z M355.004,120.8c-6.4-10-10.1-21.9-10.1-34.6 c0-35.6,28.9-64.4,64.4-64.4c35.6,0,64.4,28.8,64.4,64.4c0,20.8-9.8,39.2-25,51v-0.1c0-18.6-15-33.6-33.6-33.6h-11.5 c-18.6,0-33.6,15-33.6,33.6v0.1C364.104,132.7,359.104,127.1,355.004,120.8z" fill="#FDC75B"></path><path style="fill: rgb(251, 244, 234);" d="M410.604,426.9h-12.1c-19.7,0-35.5,15.8-35.5,35.5l0,0c-16.1-12.4-26.5-31.9-26.5-53.9 c0-37.6,30.5-68,68.1-68s68.1,30.5,68.1,68c0,21.9-10.4,41.4-26.5,53.9v-0.1C446.104,442.7,430.304,426.9,410.604,426.9z M404.604,424.6c6.6,0,12.6-2.7,16.9-7s7-10.3,7-16.9s-2.7-12.6-7-16.9s-10.3-7-16.9-7s-12.6,2.7-16.9,7s-7,10.3-7,16.9 C380.704,414,391.404,424.6,404.604,424.6z" fill="#FDC75B"></path><path style="fill: rgb(251, 244, 234);" d="M216.704,126.2c50.1,0,90.8,40.6,90.8,90.8c0,23.5-8.9,44.8-23.5,61c-3.6,4-7.5,7.6-11.8,10.9 l-0.1-0.1c0-26.3-21.1-47.3-47.3-47.3h-16.1c-26.3,0-47.3,21.1-47.3,47.3l-0.1,0.1c-21.5-16.6-35.3-42.6-35.3-71.8 C126.004,166.8,166.604,126.2,216.704,126.2z M248.704,206.5c0-8.8-3.5-16.8-9.3-22.5c-5.8-5.8-13.7-9.3-22.5-9.3 s-16.8,3.6-22.5,9.3c-5.8,5.8-9.3,13.7-9.3,22.5c0,17.6,14.2,31.8,31.8,31.8c8.8,0,16.8-3.6,22.5-9.3 C245.104,223.3,248.704,215.3,248.704,206.5z" fill="#FDC75B"></path></g><g><path style="fill: rgb(41, 152, 169);" d="M272.104,288.7L272.104,288.7c-15.3,11.9-34.5,19-55.4,19s-40.1-7.1-55.5-18.9l0.1-0.1 c0-26.3,21.1-47.3,47.3-47.3h16.1C251.104,241.3,272.104,262.4,272.104,288.7z" fill="#ED664C"></path><path style="fill: rgb(41, 152, 169);" d="M239.404,183.9c5.8,5.8,9.3,13.7,9.3,22.5s-3.5,16.8-9.3,22.5c-5.8,5.8-13.7,9.3-22.5,9.3 c-17.6,0-31.8-14.2-31.8-31.8c0-8.8,3.6-16.8,9.3-22.5c5.8-5.8,13.7-9.3,22.5-9.3S233.604,178.2,239.404,183.9z" fill="#ED664C"></path><path style="fill: rgb(41, 152, 169);" d="M122.104,105.1L122.104,105.1c-8.9,7-20.2,11.1-32.4,11.1s-23.4-4.1-32.4-11.1l0,0 c0-15.3,12.3-27.7,27.6-27.7h9.4C109.804,77.4,122.104,89.7,122.104,105.1z" fill="#ED664C"></path><path style="fill: rgb(41, 152, 169);" d="M103.004,43.9c3.4,3.4,5.4,8,5.4,13.2s-2.1,9.8-5.4,13.2s-8,5.4-13.2,5.4 c-10.3,0-18.6-8.3-18.6-18.6c0-5.1,2.1-9.8,5.4-13.2s8-5.4,13.2-5.4C95.004,38.4,99.604,40.5,103.004,43.9z" fill="#ED664C"></path><path style="fill: rgb(41, 152, 169);" d="M90.204,454.7L90.204,454.7c-8.1,6.4-18.4,10.1-29.5,10.1s-21.4-3.8-29.5-10.1l0,0 c0-14,11.2-25.2,25.2-25.2h8.6C79.004,429.5,90.204,440.8,90.204,454.7z" fill="#ED664C"></path></g><path style="fill: rgb(251, 244, 234);" d="M94.504,77.4h-9.4c-15.3,0-27.6,12.3-27.6,27.7l0,0c-12.5-9.7-20.6-24.9-20.6-42 c0-29.3,23.7-53,53-53s53,23.7,53,53c0,13-4.7,24.8-12.4,34.1c-2.4,2.9-5.2,5.6-8.2,7.9l0,0C122.104,89.7,109.804,77.4,94.504,77.4z M89.804,75.6c5.1,0,9.8-2.1,13.2-5.4s5.4-8,5.4-13.2c0-5.1-2.1-9.8-5.4-13.2s-8-5.4-13.2-5.4s-9.8,2.1-13.2,5.4s-5.4,8-5.4,13.2 C71.204,67.3,79.504,75.6,89.804,75.6z" fill="#FDC75B"></path><path style="fill: rgb(41, 152, 169);" d="M72.804,398.9c3.1,3.1,5,7.3,5,12s-1.9,8.9-5,12s-7.3,5-12,5c-9.4,0-17-7.6-17-17c0-4.7,1.9-8.9,5-12 s7.3-4.9,12-4.9S69.704,395.9,72.804,398.9z" fill="#ED664C"></path><path style="fill: rgb(251, 244, 234);" d="M60.804,427.9c4.7,0,8.9-1.9,12-5s5-7.3,5-12s-1.9-8.9-5-12s-7.3-4.9-12-4.9s-8.9,1.9-12,4.9 c-3.1,3.1-5,7.3-5,12C43.804,420.3,51.404,427.9,60.804,427.9z M56.404,429.5c-14,0-25.2,11.2-25.2,25.2l0,0 c-11.4-8.8-18.8-22.7-18.8-38.3c0-26.7,21.6-48.3,48.3-48.3s48.3,21.6,48.3,48.3c0,15.6-7.4,29.4-18.8,38.3l0,0 c0-14-11.2-25.2-25.2-25.2H56.404z" fill="#FDC75B"></path><path d="M25.104,462.7c10.3,8,22.6,12.2,35.7,12.2c13,0,25.4-4.2,35.7-12.2c14.4-11.1,22.7-28,22.7-46.2c0-13.3-4.5-25.5-12-35.4 l62.2-75.3c14.5,7.8,30.6,11.8,47.4,11.8c22.5,0,43.8-7.3,61.6-21c1.8-1.4,3.6-2.9,5.3-4.5l61.3,66.1 c-11.5,13.6-18.4,31.2-18.4,50.3c0,24.4,11.1,46.9,30.3,61.8c13.8,10.7,30.3,16.3,47.7,16.3c17.4,0,33.9-5.6,47.7-16.3 c19.3-14.9,30.4-37.4,30.4-61.8c0-43-35-78-78.1-78c-16.7,0-32.1,5.3-44.8,14.2l-62.4-67.3c13.1-17.4,20.2-38.6,20.2-60.6 c0-18.2-4.9-35.3-13.4-50.1l48.6-32.4c3.3,3.9,7.1,7.5,11.2,10.7c13.1,10.2,28.9,15.5,45.5,15.5s32.4-5.4,45.5-15.5 c18.4-14.2,28.9-35.7,28.9-58.9c0-41-33.4-74.4-74.4-74.4s-74.4,33.4-74.4,74.4c0,10.9,2.4,21.6,6.9,31.4l-49.4,33 c-18.5-21.1-45.6-34.4-75.7-34.4c-18.3,0-35.4,4.9-50.2,13.4l-23.7-32.4c6.5-10.1,10-21.9,10-34.1c0-34.7-28.3-63-63-63 s-63,28.3-63,63c0,19.7,8.9,37.8,24.5,49.9l0,0c11.1,8.6,24.4,13.1,38.5,13.1s27.4-4.5,38.5-13.1c0.3-0.2,0.6-0.5,0.8-0.7l21.2,28.9 c-21,18.5-34.3,45.5-34.3,75.7c0,30.4,13.3,58.5,36.7,77.7l-60.2,72.9c-9.1-5.9-20-9.4-31.7-9.4c-32.2,0-58.3,26.2-58.3,58.3 C2.404,434.7,10.604,451.6,25.104,462.7z M404.604,466.9c-11.2,0-21.8-3.1-31.1-9c2.2-11.8,12.6-20.5,25-20.5h12.1 c12.4,0,22.8,8.7,25,20.5C426.404,463.8,415.704,466.9,404.604,466.9z M390.704,400.8c0-3.7,1.4-7.2,4.1-9.8c2.6-2.6,6.1-4,9.8-4 c3.7,0,7.2,1.4,9.8,4.1c2.6,2.6,4,6.1,4,9.8s-1.4,7.2-4.1,9.8c-2.6,2.6-6.1,4.1-9.8,4.1C397.004,414.6,390.704,408.4,390.704,400.8z M404.604,350.6c32,0,58.1,26,58.1,58c0,12.5-3.9,24.3-11,34.1c-4.3-9-11.5-16.3-20.4-20.8c4.8-6,7.3-13.3,7.3-21.1 c0-9.1-3.5-17.6-9.9-24s-14.9-9.9-24-9.9s-17.6,3.5-24,9.9s-9.9,14.9-9.9,24c0,7.9,2.7,15.2,7.3,21c-8.9,4.5-16.2,11.9-20.6,20.9 c-7.1-9.8-11-21.6-11-34.1C346.504,376.6,372.504,350.6,404.604,350.6z M409.404,140.6c-10.4,0-20.2-2.8-28.8-8.3 c2.2-10.7,11.7-18.9,23.1-18.9h11.4c11.4,0,20.9,8.2,23.1,18.9C429.604,137.7,419.704,140.6,409.404,140.6z M396.904,78.8 c0-3.4,1.3-6.6,3.7-8.9c2.4-2.4,5.5-3.7,8.9-3.7s6.6,1.3,8.9,3.7c2.4,2.4,3.7,5.5,3.7,8.9s-1.3,6.6-3.7,8.9 c-2.4,2.4-5.5,3.7-8.9,3.7C402.504,91.4,396.904,85.8,396.904,78.8z M409.404,31.8c30,0,54.4,24.4,54.4,54.4 c0,11.4-3.5,22.2-9.8,31.2c-4.1-8-10.6-14.6-18.6-18.9c4.3-5.6,6.7-12.5,6.7-19.8c0-8.7-3.4-16.9-9.5-23.1s-14.3-9.5-23.1-9.5 s-16.9,3.4-23.1,9.5c-6.2,6.2-9.5,14.3-9.5,23.1c0,7.4,2.5,14.2,6.7,19.7c-8,4.2-14.6,10.8-18.7,18.9c-0.5-0.6-0.9-1.3-1.3-2 c-5.6-8.7-8.5-18.8-8.5-29.2C355.004,56.2,379.404,31.8,409.404,31.8z M89.804,106.2c-7.7,0-15.2-2-21.7-5.9 c2.1-7.4,8.9-12.9,17-12.9h9.4c8.1,0,14.9,5.5,17,12.9C104.904,104.1,97.504,106.2,89.804,106.2z M81.204,57c0-2.3,0.9-4.5,2.5-6.1 s3.8-2.5,6.1-2.5s4.5,0.9,6.1,2.5s2.5,3.8,2.5,6.1s-0.9,4.5-2.5,6.1s-3.8,2.5-6.1,2.5C85.004,65.6,81.204,61.9,81.204,57z M126.604,85.4c-3.2-5.2-7.6-9.5-12.8-12.6c3-4.6,4.7-10,4.7-15.7c0-7.7-3-14.9-8.4-20.2c-5.4-5.4-12.6-8.4-20.2-8.4 s-14.9,3-20.2,8.4c-5.4,5.4-8.4,12.6-8.4,20.2c0,5.8,1.7,11.1,4.7,15.6c-5.3,3.1-9.7,7.5-12.9,12.7c-4-6.6-6.2-14.2-6.2-22.3 c0-23.7,19.3-43,43-43s43,19.3,43,43C132.804,71,130.604,78.7,126.604,85.4z M216.704,297.7c-16.3,0-31.8-4.8-45.1-13.8 c2.4-18.3,18.1-32.5,37-32.5h16.1c19,0,34.7,14.2,37,32.5C248.504,292.9,233.004,297.7,216.704,297.7z M195.004,206.5 c0-5.9,2.3-11.4,6.4-15.5c4.1-4.1,9.6-6.4,15.5-6.4s11.4,2.3,15.5,6.4c4.1,4.1,6.4,9.6,6.4,15.5s-2.3,11.3-6.4,15.5 c-4.1,4.1-9.6,6.4-15.5,6.4C204.804,228.3,195.004,218.5,195.004,206.5z M136.004,216.9c0-44.5,36.2-80.8,80.8-80.8 c44.5,0,80.8,36.2,80.8,80.8c0,19.1-6.7,37.4-18.9,51.9c-5.5-15-17.2-27-31.8-33.1c7.7-7.8,11.9-18.2,11.9-29.3 c0-11.2-4.3-21.7-12.2-29.6c-7.9-7.9-18.4-12.2-29.6-12.2c-11.2,0-21.7,4.3-29.6,12.2c-7.9,7.9-12.2,18.4-12.2,29.6 c0,11.3,4.5,21.6,11.9,29.2c-14.8,6.1-26.5,18.2-32,33.2C142.704,254.5,136.004,236.3,136.004,216.9z M60.704,454.8 c-6.7,0-13.1-1.7-18.7-4.9c2-6.1,7.7-10.5,14.4-10.5h8.6c6.7,0,12.4,4.4,14.4,10.5C73.804,453.1,67.404,454.8,60.704,454.8z M53.804,410.9c0-1.9,0.7-3.6,2-4.9s3.1-2,4.9-2c1.9,0,3.6,0.7,4.9,2s2,3.1,2,4.9c0,1.9-0.7,3.6-2,4.9s-3.1,2-4.9,2 C56.904,417.9,53.804,414.8,53.804,410.9z M60.704,378.2c21.1,0,38.4,17.2,38.4,38.3c0,6.7-1.7,13-4.8,18.6 c-2.7-4.1-6.3-7.5-10.4-10.2c2.6-4.2,3.9-9,3.9-14c0-7.2-2.8-14-7.9-19.1s-11.9-7.9-19.1-7.9s-14,2.8-19.1,7.9s-7.9,11.9-7.9,19.1 c0,5.1,1.4,9.9,3.9,14c-4.2,2.6-7.8,6.1-10.5,10.2c-3.1-5.6-4.8-12-4.8-18.6C22.404,395.4,39.604,378.2,60.704,378.2z" fill="#000000"></path></svg>