<!-- icon666.com - MILLIONS vector ICONS FREE --><svg id="Capa_1" enable-background="new 0 0 512 512" viewBox="0 0 512 512" xmlns="http://www.w3.org/2000/svg"><g><g><g><path d="m316.171 340.539v-23.132l-16.428-4.016c-1.199-4.236-2.879-8.27-4.974-12.042l8.806-14.504-16.357-16.357-14.463 8.782c-3.766-2.106-7.794-3.798-12.027-5.009l-4.027-16.475h-23.132l-4.016 16.428c-4.237 1.199-8.27 2.879-12.042 4.975l-14.503-8.806-16.357 16.357 8.782 14.464c-2.106 3.766-3.798 7.794-5.01 12.027l-16.475 4.027v23.132l16.428 4.016c1.199 4.236 2.879 8.27 4.974 12.042l-8.806 14.503 16.357 16.357 14.463-8.781c3.766 2.106 7.794 3.798 12.027 5.01l4.027 16.475h23.132l4.016-16.428c4.236-1.199 8.27-2.879 12.042-4.974l14.503 8.806 16.357-16.357-8.782-14.463c2.106-3.766 3.798-7.794 5.01-12.027zm-71.111 16.065c-15.301 0-27.706-12.404-27.706-27.706 0-15.301 12.404-27.706 27.706-27.706s27.706 12.404 27.706 27.706c0 15.301-12.405 27.706-27.706 27.706z" fill="#4f4f4f" style="fill: rgb(41, 152, 169);"></path></g><g><g fill="#4f4f4f"><path d="m373.06 512h-280.069c-15.081 0-27.35-12.269-27.35-27.35v-21.339c0-3.021 2.448-5.47 5.47-5.47h241.725c3.022 0 5.47 2.45 5.47 5.47s-2.448 5.47-5.47 5.47h-236.255v15.869c0 9.049 7.362 16.41 16.41 16.41h280.069c3.022 0 5.47 2.45 5.47 5.47s-2.448 5.47-5.47 5.47z" fill="#4f4f4f" style="fill: rgb(41, 152, 169);"></path><g><path d="m330.831 164.027 41.039 21.215v-12.335l-25.523-12.84 25.523-12.841v-12.335l-41.039 21.216z" fill="#000000"></path><path d="m380.087 186.217h11.779l23.391-60.788h-11.861z" fill="#000000"></path><path d="m419.404 134.902v12.331l25.706 12.834-25.706 12.834v12.331l40.741-20.974.296-.153v-8.076z" fill="#000000"></path></g><g id="XMLID_19_"><path d="m66.35 124.262c-3.022 0-5.47-2.45-5.47-5.47 0-31.772 26.011-57.621 57.984-57.621 3.022 0 5.47 2.45 5.47 5.47 0 3.021-2.448 5.47-5.47 5.47-25.94 0-47.044 20.942-47.044 46.681 0 3.02-2.448 5.47-5.47 5.47z" fill="#000000"></path><g id="XMLID_20_"><path d="m118.936 20.467c-3.022 0-5.47-2.45-5.47-5.47v-9.527c0-3.021 2.448-5.47 5.47-5.47s5.47 2.45 5.47 5.47v9.527c0 3.02-2.448 5.47-5.47 5.47z" fill="#000000"></path><path d="m38.223 56.375c-1.415 0-2.828-.546-3.899-1.633l-6.628-6.736c-2.119-2.154-2.091-5.617.063-7.736 2.152-2.118 5.614-2.092 7.736.062l6.628 6.736c3.208 3.261.667 9.307-3.9 9.307z" fill="#000000"></path><path d="m14.841 113.326h-9.371c-3.022 0-5.47-2.45-5.47-5.47s2.448-5.47 5.47-5.47h9.371c3.022 0 5.47 2.45 5.47 5.47s-2.448 5.47-5.47 5.47z" fill="#000000"></path><path d="m232.786 112.936h-9.371c-3.022 0-5.47-2.45-5.47-5.47s2.448-5.47 5.47-5.47h9.371c3.022 0 5.47 2.45 5.47 5.47s-2.448 5.47-5.47 5.47z" fill="#000000"></path><path d="m199.762 56.099c-4.566 0-7.108-6.046-3.899-9.307l6.628-6.736c2.12-2.154 5.584-2.18 7.736-.062 2.154 2.119 2.181 5.582.063 7.736l-6.628 6.736c-1.071 1.087-2.485 1.633-3.9 1.633z" fill="#000000"></path></g></g></g><g><path d="m486.838 243.966c13.875 0 25.162-11.288 25.162-25.162v-157.539c0-15.081-12.269-27.35-27.35-27.35h-180.216c-13.875 0-25.162 11.288-25.162 25.162v129.938h-113.165c2.307-2.991 4.906-5.781 7.766-8.319 17.703-15.707 27.856-38.27 27.856-61.904 0-45.648-37.174-82.785-82.865-82.785s-82.864 37.137-82.864 82.785c0 23.634 10.152 46.197 27.856 61.904 6.253 5.548 11.236 12.301 14.654 19.726-7.087 3.921-11.9 11.469-11.9 20.126 0 10.512 7.101 19.379 16.753 22.106v14.441c0 1.962.364 3.836.998 5.581v174.38c0 3.021 2.448 5.47 5.47 5.47s5.47-2.45 5.47-5.47v-164.187c1.424.405 2.92.636 4.472.636h18.346v156.559c0 3.021 2.448 5.47 5.47 5.47h202.436l11.684 2.856c1.233 3.761 2.753 7.437 4.539 10.986l-9.905 16.314c-1.307 2.154-.975 4.924.808 6.706l21.389 21.389c1.782 1.782 4.552 2.117 6.706.807l16.252-9.868c3.542 1.797 7.215 3.327 10.972 4.571l4.53 18.532c.6 2.448 2.794 4.171 5.314 4.171h30.248c2.521 0 4.715-1.723 5.314-4.171l4.512-18.459c3.761-1.233 7.437-2.753 10.986-4.54l16.314 9.904c2.155 1.31 4.924.974 6.706-.807l21.389-21.389c1.783-1.782 2.117-4.552.809-6.706l-9.868-16.253c1.797-3.542 3.326-7.213 4.571-10.972l18.532-4.53c2.448-.598 4.171-2.793 4.171-5.314v-30.248c0-2.521-1.722-4.715-4.171-5.314l-18.46-4.513c-1.233-3.761-2.753-7.437-4.539-10.986l9.905-16.314c1.307-2.154.975-4.924-.809-6.706l-21.389-21.389c-1.781-1.783-4.551-2.117-6.706-.807l-16.252 9.868c-3.542-1.797-7.215-3.327-10.972-4.571l-4.53-18.532c-.6-2.448-2.794-4.171-5.314-4.171h-23.003v-71.111zm-5.046-190.382c3.297 0 5.971 2.684 5.971 5.993s-2.674 5.993-5.971 5.993-5.971-2.684-5.971-5.993 2.674-5.993 5.971-5.993zm-25.59 0c3.297 0 5.971 2.684 5.971 5.993s-2.674 5.993-5.971 5.993-5.971-2.684-5.971-5.993 2.672-5.993 5.971-5.993zm-25.591 0c3.297 0 5.971 2.684 5.971 5.993s-2.674 5.993-5.971 5.993-5.971-2.684-5.971-5.993 2.673-5.993 5.971-5.993zm-151.339 146.371v18.849c0 1.174.088 2.326.243 3.457h-107.957c.043-.568.086-1.136.086-1.714 0-8.827-5.006-16.496-12.322-20.347.038-.082.077-.164.115-.245zm-208.155-27.443c-15.365-13.631-24.177-33.212-24.177-53.72 0-39.615 32.265-71.845 71.924-71.845s71.925 32.23 71.925 71.845c0 20.508-8.812 40.089-24.177 53.721-7.859 6.973-14.065 15.568-18.119 25.046h-23.896v-39.771c11.832-2.546 20.734-13.17 20.734-25.856 0-14.579-11.755-26.439-26.204-26.439-14.45 0-26.205 11.86-26.205 26.439 0 12.686 8.903 23.31 20.735 25.856v39.771h-24.06c-.119 0-.234.016-.352.018-4.052-9.486-10.26-18.085-18.128-25.065zm18.481 60.083c-6.643 0-12.048-5.404-12.048-12.048s5.404-12.048 12.048-12.048h59.059c6.643 0 12.048 5.404 12.048 12.048 0 6.643-5.404 12.048-12.048 12.048zm225.479 165.72v26.279h-186.018v-151.09h9.424c9.049 0 16.41-7.362 16.41-16.41v-14.43c5.36-1.515 9.931-4.924 12.937-9.463h115.987c4.553 6.502 12.095 10.765 20.618 10.765h56.626v88.216c-2.103-1.093-4.686-.725-6.38.969l-21.389 21.389c-1.783 1.782-2.117 4.552-.809 6.706l9.868 16.253c-1.797 3.542-3.326 7.213-4.571 10.972l-18.532 4.53c-2.449.599-4.171 2.794-4.171 5.314zm109.391-72.298 4.247 17.373c.467 1.908 1.92 3.419 3.808 3.959 5.049 1.445 9.949 3.487 14.562 6.066 1.719.962 3.825.924 5.508-.098l15.244-9.254 15.316 15.316-9.287 15.297c-1.02 1.679-1.06 3.777-.106 5.494 2.568 4.622 4.593 9.527 6.023 14.58.536 1.896 2.051 3.356 3.965 3.825l17.312 4.232v21.662l-17.373 4.247c-1.908.466-3.419 1.92-3.959 3.808-1.446 5.051-3.488 9.95-6.066 14.561-.963 1.72-.926 3.825.097 5.509l9.255 15.244-15.316 15.316-15.297-9.286c-1.679-1.021-3.777-1.061-5.494-.106-4.623 2.568-9.529 4.594-14.58 6.024-1.895.536-3.356 2.051-3.825 3.965l-4.232 17.31h-21.662l-4.247-17.373c-.467-1.908-1.92-3.419-3.808-3.959-5.049-1.445-9.949-3.487-14.562-6.066-1.719-.962-3.825-.924-5.508.098l-15.244 9.254-15.316-15.316 9.287-15.297c1.02-1.679 1.06-3.777.106-5.494-2.568-4.622-4.593-9.527-6.023-14.58-.536-1.896-2.051-3.356-3.965-3.825l-17.312-4.232v-21.662l17.373-4.247c1.908-.466 3.419-1.92 3.959-3.808 1.446-5.051 3.488-9.95 6.066-14.561.963-1.72.926-3.825-.097-5.509l-9.255-15.244 15.316-15.316 15.297 9.286c1.678 1.02 3.777 1.06 5.494.106 4.623-2.568 9.529-4.594 14.58-6.024 1.895-.536 3.356-2.051 3.825-3.965l4.232-17.31zm-52.467 12.771v-94.822h22.817v72.573c-.772.711-1.357 1.633-1.619 2.71l-4.512 18.459c-3.761 1.233-7.437 2.753-10.986 4.54zm-67.567-105.762c-7.842 0-14.222-6.38-14.222-14.222v-133.565h210.848v133.564c0 7.842-6.38 14.222-14.222 14.222h-182.404z" fill="#4f4f4f" style="fill: rgb(41, 152, 169);"></path><g><path d="m413.538 364.828c-26.902 0-48.71 21.808-48.71 48.71s21.808 48.71 48.71 48.71 48.71-21.808 48.71-48.71-21.808-48.71-48.71-48.71zm0 66.423c-9.767 0-17.712-7.946-17.712-17.712s7.946-17.712 17.712-17.712 17.712 7.946 17.712 17.712-7.944 17.712-17.712 17.712z" fill="#4f4f4f" style="fill: rgb(41, 152, 169);"></path></g></g></g></g></g></svg>