<!-- icon666.com - MILLIONS vector ICONS FREE --><svg enable-background="new 0 0 520 520" viewBox="0 0 520 520" xmlns="http://www.w3.org/2000/svg"><g id="_x37_28_x2C__Coding_x2C__Software_x2C__Web_x2C__Web_Development_x2C_"><g><g><path d="m145.81 125.338c.13.049.255.104.379.162 16.738 6.877 37.177 3.801 51.193-10.216 18.334-18.334 18.334-48.165 0-66.5-12.678-12.677-30.439-16.444-45.843-12.004l25.058 25.058c8.931 8.932 8.931 23.464.001 32.395-8.951 8.952-23.442 8.953-32.395 0l-25.065-25.065c-6.628 22.71 4.741 46.934 26.672 56.17z" fill="#000000" style="fill: rgb(41, 152, 169);"></path><path d="m360.524 245.766 25.245 25.244c8.4-30.209-14.592-59.857-45.471-59.857-20.288 0-37.751 13.084-44.299 31.191.036 1.114-.306 2.227-1.011 3.159-9.93 35.141 22.461 67.913 58.384 57.9l-25.242-25.243c-8.953-8.95-8.954-23.442 0-32.395 8.951-8.951 23.442-8.952 32.394.001z" fill="#000000" style="fill: rgb(41, 152, 169);"></path><path d="m178.609 137.168c-11.599 3.01-24.122 2.377-35.58-2.166h-75.531v220h370v-220h-179.207l67.922 67.922c19.091-4.879 39.771.319 54.438 14.986 17.037 17.037 21.623 42.253 11.683 64.238-1.43 3.166-5.608 3.96-8.091 1.476l-30.788-30.787c-5.044-5.042-13.208-5.046-18.252 0-5.033 5.032-5.033 13.221-.001 18.253l30.788 30.788c2.471 2.468 1.707 6.653-1.476 8.091-7.588 3.431-15.97 5.244-24.238 5.244-37.682 0-64.641-35.752-55.167-71.545zm33.889 92.834h15c2.762 0 5 2.238 5 5s-2.238 5-5 5h-15c-2.762 0-5-2.238-5-5s2.238-5 5-5zm-20 20c2.762 0 5 2.238 5 5s-2.238 5-5 5h-40c-2.762 0-5-2.238-5-5s2.238-5 5-5zm-10-15c0-2.762 2.238-5 5-5h10c2.762 0 5 2.238 5 5s-2.238 5-5 5h-10c-2.762 0-5-2.238-5-5zm-25 35h50c2.762 0 5 2.238 5 5s-2.238 5-5 5h-50c-2.762 0-5-2.238-5-5s2.238-5 5-5zm5-60h40c2.762 0 5 2.238 5 5s-2.238 5-5 5h-40c-2.762 0-5-2.238-5-5s2.238-5 5-5zm-40 0h25c2.762 0 5 2.238 5 5s-2.238 5-5 5h-25c-2.762 0-5-2.238-5-5s2.238-5 5-5zm0 20h50c2.762 0 5 2.238 5 5s-2.238 5-5 5h-50c-2.762 0-5-2.238-5-5s2.238-5 5-5zm0 20h15c2.762 0 5 2.238 5 5s-2.238 5-5 5h-15c-2.762 0-5-2.238-5-5s2.238-5 5-5zm0 20h20c2.762 0 5 2.238 5 5s-2.238 5-5 5h-20c-2.762 0-5-2.238-5-5s2.238-5 5-5zm0 20h25c2.762 0 5 2.238 5 5s-2.238 5-5 5h-25c-2.762 0-5-2.238-5-5s2.238-5 5-5zm0 20h50c2.762 0 5 2.238 5 5s-2.238 5-5 5h-50c-2.762 0-5-2.238-5-5s2.238-5 5-5zm-20 30h-15c-2.762 0-5-2.238-5-5s2.238-5 5-5h15c2.762 0 5 2.238 5 5s-2.238 5-5 5zm0-20h-15c-2.762 0-5-2.238-5-5s2.238-5 5-5h15c2.762 0 5 2.238 5 5s-2.238 5-5 5zm0-20h-15c-2.762 0-5-2.238-5-5s2.238-5 5-5h15c2.762 0 5 2.238 5 5s-2.238 5-5 5zm0-20h-15c-2.762 0-5-2.238-5-5s2.238-5 5-5h15c2.762 0 5 2.238 5 5s-2.238 5-5 5zm0-20h-15c-2.762 0-5-2.238-5-5s2.238-5 5-5h15c2.762 0 5 2.238 5 5s-2.238 5-5 5zm0-20h-15c-2.762 0-5-2.238-5-5s2.238-5 5-5h15c2.762 0 5 2.238 5 5s-2.238 5-5 5zm0-20h-15c-2.762 0-5-2.238-5-5s2.238-5 5-5h15c2.762 0 5 2.238 5 5s-2.238 5-5 5zm35 120h-15c-2.762 0-5-2.238-5-5s2.238-5 5-5h15c2.762 0 5 2.238 5 5s-2.238 5-5 5zm55 0h-40c-2.762 0-5-2.238-5-5s2.238-5 5-5h40c2.762 0 5 2.238 5 5s-2.238 5-5 5zm5-20h-10c-2.762 0-5-2.238-5-5s2.238-5 5-5h10c2.762 0 5 2.238 5 5s-2.238 5-5 5zm35 20h-25c-2.762 0-5-2.238-5-5s2.238-5 5-5h25c2.762 0 5 2.238 5 5s-2.238 5-5 5zm-25-25c0-2.762 2.238-5 5-5h15c2.762 0 5 2.238 5 5s-2.238 5-5 5h-15c-2.762 0-5-2.238-5-5zm30-15h-75c-2.762 0-5-2.238-5-5s2.238-5 5-5h75c2.762 0 5 2.238 5 5s-2.238 5-5 5z" fill="#000000" style="fill: rgb(41, 152, 169);"></path><path d="m215.637 106.489c-5.596 11.813-15.083 21.286-26.681 26.884l99.989 99.99c5.584-11.43 15.081-21.02 26.894-26.672-24.654-24.654-75.372-75.371-100.202-100.202zm7.251 37.931c-3.822 1.598-8.215-.207-9.813-4.029-1.596-3.821.207-8.215 4.029-9.811 3.822-1.598 8.215.207 9.813 4.029 1.596 3.822-.207 8.215-4.029 9.811zm59.216 51.16c3.822-1.598 8.215.207 9.811 4.029 1.597 3.821-.207 8.215-4.028 9.811-3.822 1.598-8.215-.207-9.811-4.029-1.597-3.822.207-8.215 4.028-9.811z" fill="#000000" style="fill: rgb(41, 152, 169);"></path><path d="m417.498 70.002c8.272 0 15-6.729 15-15s-6.728-15-15-15c-8.271 0-15 6.729-15 15s6.729 15 15 15z" fill="#000000" style="fill: rgb(41, 152, 169);"></path><path d="m57.498 80.002c5.514 0 10-4.486 10-10s-4.486-10-10-10-10 4.486-10 10 4.486 10 10 10z" fill="#000000" style="fill: rgb(41, 152, 169);"></path><path d="m441.998 105.002h-213.707l20 20h194.207c2.762 0 5 2.238 5 5v230c0 2.762-2.238 5-5 5h-380c-2.762 0-5-2.238-5-5v-230c0-2.762 2.238-5 5-5h64.168c-6.477-5.658-11.335-12.366-14.656-20h-49.012c-14.061 0-25.5 11.439-25.5 25.5v259c0 14.06 11.439 25.5 25.5 25.5h379c14.061 0 25.5-11.44 25.5-25.5v-259c0-14.061-11.439-25.5-25.5-25.5zm-188.5 296c-5.522 0-10-4.478-10-10s4.478-10 10-10c5.523 0 10 4.478 10 10s-4.477 10-10 10z" fill="#000000" style="fill: rgb(41, 152, 169);"></path><circle cx="365" cy="52.5" r="7.5" fill="#000000" style="fill: rgb(41, 152, 169);"></circle><circle cx="475" cy="77.504" r="7.499" fill="#000000" style="fill: rgb(41, 152, 169);"></circle><circle cx="244.996" cy="67.5" r="7.5" fill="#000000" style="fill: rgb(41, 152, 169);"></circle><circle cx="85" cy="37.5" r="7.5" fill="#000000" style="fill: rgb(41, 152, 169);"></circle><path d="m322.498 480.002h-24v-55h-15v55h-60v-55h-15v55h-24c-2.762 0-5 2.238-5 5s2.238 5 5 5h138c2.762 0 5-2.238 5-5s-2.238-5-5-5z" fill="#000000" style="fill: rgb(41, 152, 169);"></path></g></g></g></svg>